<?xml version="1.0" encoding="UTF-8" standalone="no"?>
<!-- Created with Inkscape (http://www.inkscape.org/) -->

<svg
   width="172.39999mm"
   height="138.53334mm"
   viewBox="0 0 172.39999 138.53334"
   version="1.1"
   id="svg21"
   xml:space="preserve"
   inkscape:version="1.2.2 (b0a8486541, 2022-12-01)"
   sodipodi:docname="crown-solid.svg"
   inkscape:export-filename="crown-solid.png"
   inkscape:export-xdpi="96"
   inkscape:export-ydpi="96"
   xmlns:inkscape="http://www.inkscape.org/namespaces/inkscape"
   xmlns:sodipodi="http://sodipodi.sourceforge.net/DTD/sodipodi-0.dtd"
   xmlns="http://www.w3.org/2000/svg"
   xmlns:svg="http://www.w3.org/2000/svg"><sodipodi:namedview
     id="namedview23"
     pagecolor="#ffffff"
     bordercolor="#000000"
     borderopacity="0.25"
     inkscape:showpageshadow="2"
     inkscape:pageopacity="0.0"
     inkscape:pagecheckerboard="0"
     inkscape:deskcolor="#d1d1d1"
     inkscape:document-units="mm"
     showgrid="false"
     inkscape:zoom="0.35355339"
     inkscape:cx="328.09755"
     inkscape:cy="486.48947"
     inkscape:window-width="960"
     inkscape:window-height="988"
     inkscape:window-x="0"
     inkscape:window-y="0"
     inkscape:window-maximized="0"
     inkscape:current-layer="layer1" /><defs
     id="defs18"><filter
       style="color-interpolation-filters:sRGB"
       inkscape:label="Drop Shadow"
       id="filter8779"
       x="-0.047244094"
       y="-0.060742408"
       width="1.0944881"
       height="1.1214848"><feFlood
         flood-opacity="0.65000000000000002"
         flood-color="rgb(0,0,0)"
         result="flood"
         id="feFlood8769" /><feComposite
         in="flood"
         in2="SourceGraphic"
         operator="in"
         result="composite1"
         id="feComposite8771" /><feGaussianBlur
         in="composite1"
         stdDeviation="3"
         result="blur"
         id="feGaussianBlur8773"
         flood-opacity="0.5" /><feOffset
         dx="0"
         dy="0"
         result="offset"
         id="feOffset8775" /><feComposite
         in="SourceGraphic"
         in2="offset"
         operator="over"
         result="composite2"
         id="feComposite8777" /></filter></defs><g
     inkscape:label="Layer 1"
     inkscape:groupmode="layer"
     id="layer1"
     transform="translate(-18.592479,-46.203617)"><path
       d="m 110.34873,75.782783 c 3.01625,-1.852083 5.02708,-5.212291 5.02708,-8.995833 0,-5.847292 -4.73604,-10.583333 -10.58333,-10.583333 -5.847293,0 -10.583333,4.736041 -10.583333,10.583333 0,3.81 2.01083,7.14375 5.02708,8.995833 l -15.16062,30.321247 c -2.40771,4.81542 -8.65188,6.19125 -12.85875,2.83105 L 47.642477,90.070283 c 1.32292,-1.772708 2.11667,-3.96875 2.11667,-6.35 0,-5.847291 -4.73604,-10.583333 -10.58334,-10.583333 -5.847287,0 -10.583328,4.736042 -10.583328,10.583333 0,5.847292 4.736041,10.583334 10.583328,10.583334 0.0529,0 0.1323,0 0.18521,0 l 12.09146,66.516253 c 1.45521,8.04333 8.46667,13.91708 16.66875,13.91708 h 73.342503 c 8.17562,0 15.18708,-5.84729 16.66875,-13.91708 l 12.09146,-66.516253 c 0.0529,0 0.13229,0 0.18521,0 5.84729,0 10.58333,-4.736042 10.58333,-10.583334 0,-5.847291 -4.73604,-10.583333 -10.58333,-10.583333 -5.8473,0 -10.58334,4.736042 -10.58334,10.583333 0,2.38125 0.79375,4.577292 2.11667,6.35 L 138.3681,108.93508 c -4.20687,3.3602 -10.45104,1.98437 -12.85874,-2.83105 z"
       id="path148"
       style="fill:#f1c40f;fill-opacity:1;stroke:#ffffff;stroke-width:20;stroke-linecap:round;stroke-dasharray:none;stroke-opacity:1;paint-order:stroke fill markers" /></g></svg>
